<svg width="32" height="33" viewBox="0 0 32 33" fill="none" xmlns="http://www.w3.org/2000/svg">
<path fill-rule="evenodd" clip-rule="evenodd" d="M19.8625 3.85603C20.4145 3.85603 20.8625 4.30413 20.8625 4.85625C20.8625 5.40838 20.4145 5.85648 19.8625 5.85648H10.1719C6.82787 5.85648 4.66653 8.15567 4.66653 11.7165V22.4949C4.66653 26.1024 6.77587 28.3429 10.1719 28.3429H21.6439C24.9879 28.3429 27.1492 26.0477 27.1492 22.4949V13.1075C27.1492 12.5553 27.5972 12.1072 28.1492 12.1072C28.7012 12.1072 29.1492 12.5553 29.1492 13.1075V22.4949C29.1492 27.1893 26.1332 30.3433 21.6439 30.3433H10.1719C5.68253 30.3433 2.66653 27.1893 2.66653 22.4949V11.7165C2.66653 7.01541 5.68253 3.85603 10.1719 3.85603H19.8625ZM22.6831 12.9645C23.1204 13.3032 23.2004 13.9314 22.8617 14.3675L18.9551 19.4086C18.7924 19.6193 18.5524 19.7567 18.2884 19.7887C18.0217 19.8247 17.7577 19.7474 17.5471 19.5833L13.7897 16.6306L10.4151 21.017C10.2177 21.273 9.92174 21.4077 9.62174 21.4077C9.4084 21.4077 9.19374 21.3397 9.0124 21.201C8.57507 20.8636 8.4924 20.2355 8.82974 19.798L12.8204 14.6102C12.9831 14.3981 13.2244 14.2608 13.4884 14.2274C13.7577 14.1928 14.0217 14.2674 14.2311 14.4342L17.9911 17.3882L21.2804 13.1432C21.6191 12.7044 22.2457 12.6231 22.6831 12.9645ZM26.6231 2.73298C28.5884 2.73298 30.1857 4.33067 30.1857 6.29645C30.1857 8.26222 28.5884 9.86125 26.6231 9.86125C24.6591 9.86125 23.0604 8.26222 23.0604 6.29645C23.0604 4.33067 24.6591 2.73298 26.6231 2.73298ZM26.6231 4.73343C25.7617 4.73343 25.0604 5.43359 25.0604 6.29645C25.0604 7.15798 25.7617 7.8608 26.6231 7.8608C27.4844 7.8608 28.1857 7.15798 28.1857 6.29645C28.1857 5.43359 27.4844 4.73343 26.6231 4.73343Z" fill="white"/>
</svg>
