<svg width="32" height="33" viewBox="0 0 32 33" fill="none" xmlns="http://www.w3.org/2000/svg">
<path fill-rule="evenodd" clip-rule="evenodd" d="M8.33338 17.403C13.7587 17.403 14.0001 19.2434 14.0001 23.0709C14.0001 24.9887 14.0001 26.353 13.1947 27.3519C12.2681 28.5028 10.5814 28.7389 8.33338 28.7389C6.08538 28.7389 4.39872 28.5028 3.47205 27.3519C2.66672 26.353 2.66672 24.99 2.66672 23.1043L3.66672 23.0709H2.66672C2.66672 19.2434 2.90805 17.403 8.33338 17.403ZM23.0001 17.403C28.4254 17.403 28.6667 19.2434 28.6667 23.0709C28.6667 24.9887 28.6667 26.353 27.8614 27.3519C26.9347 28.5028 25.2481 28.7389 23.0001 28.7389C20.7521 28.7389 19.0654 28.5028 18.1387 27.3519C17.3334 26.353 17.3334 24.99 17.3334 23.1043L18.3334 23.0709H17.3334C17.3334 19.2434 17.5747 17.403 23.0001 17.403ZM8.60826 19.404L8.33338 19.4034C4.85475 19.4034 4.67636 19.6531 4.66721 22.5736L4.66777 23.7113C4.67409 24.8729 4.71834 25.7119 5.02805 26.0983C5.38138 26.5357 6.43072 26.7384 8.33338 26.7384C10.2361 26.7384 11.2854 26.5344 11.6387 26.097C12.0001 25.6475 12.0001 24.5806 12.0001 23.1029C12.0001 19.7686 12.0001 19.4197 8.60826 19.404ZM23.2749 19.404L23.0001 19.4034C19.5214 19.4034 19.343 19.6531 19.3339 22.5736L19.3344 23.7113C19.3408 24.8729 19.385 25.7119 19.6947 26.0983C20.0481 26.5357 21.0974 26.7384 23.0001 26.7384C24.9027 26.7384 25.9521 26.5344 26.3054 26.097C26.6667 25.6475 26.6667 24.5806 26.6667 23.1029C26.6667 19.7686 26.6667 19.4197 23.2749 19.404ZM8.33338 2.733C13.7587 2.733 14.0001 4.57341 14.0001 8.40095C14.0001 10.3187 14.0001 11.683 13.1947 12.6819C12.2681 13.8328 10.5814 14.0689 8.33338 14.0689C6.08538 14.0689 4.39872 13.8328 3.47205 12.6819C2.66672 11.683 2.66672 10.32 2.66672 8.43429L3.66672 8.40095H2.66672C2.66672 4.57341 2.90805 2.733 8.33338 2.733ZM23.0001 2.733C28.4254 2.733 28.6667 4.57341 28.6667 8.40095C28.6667 10.3187 28.6667 11.683 27.8614 12.6819C26.9347 13.8328 25.2481 14.0689 23.0001 14.0689C20.7521 14.0689 19.0654 13.8328 18.1387 12.6819C17.3334 11.683 17.3334 10.32 17.3334 8.43429L18.3334 8.40095H17.3334C17.3334 4.57341 17.5747 2.733 23.0001 2.733ZM8.60826 4.73405L8.33338 4.73345C4.85475 4.73345 4.67636 4.98313 4.66721 7.90357L4.66777 9.04133C4.67409 10.2029 4.71834 11.0419 5.02805 11.4283C5.38138 11.8657 6.43072 12.0684 8.33338 12.0684C10.2361 12.0684 11.2854 11.8644 11.6387 11.427C12.0001 10.9775 12.0001 9.91062 12.0001 8.43295C12.0001 5.09859 12.0001 4.74974 8.60826 4.73405ZM23.2749 4.73405L23.0001 4.73345C19.5214 4.73345 19.343 4.98313 19.3339 7.90357L19.3344 9.04133C19.3408 10.2029 19.385 11.0419 19.6947 11.4283C20.0481 11.8657 21.0974 12.0684 23.0001 12.0684C24.9027 12.0684 25.9521 11.8644 26.3054 11.427C26.6667 10.9775 26.6667 9.91062 26.6667 8.43295C26.6667 5.09859 26.6667 4.74974 23.2749 4.73405Z" fill="#FE390C"/>
</svg>
