<svg width="32" height="33" viewBox="0 0 32 33" fill="none" xmlns="http://www.w3.org/2000/svg">
<path fill-rule="evenodd" clip-rule="evenodd" d="M21.9147 1.39963C26.7507 1.39963 30 4.79507 30 9.84821V21.6242C30 26.6773 26.7507 30.0728 21.9147 30.0728H9.4187C4.5827 30.0728 1.33337 26.6773 1.33337 21.6242V9.84821C1.33337 4.79507 4.5827 1.39963 9.4187 1.39963H21.9147ZM21.9147 3.40008H9.4187C5.7227 3.40008 3.33337 5.92999 3.33337 9.84821V21.6242C3.33337 25.5424 5.7227 28.0723 9.4187 28.0723H21.9147C25.612 28.0723 28 25.5424 28 21.6242V9.84821C28 5.92999 25.612 3.40008 21.9147 3.40008ZM9.49483 12.3388C10.0468 12.3388 10.4948 12.7869 10.4948 13.339V22.4877C10.4948 23.0399 10.0468 23.488 9.49483 23.488C8.94283 23.488 8.49483 23.0399 8.49483 22.4877V13.339C8.49483 12.7869 8.94283 12.3388 9.49483 12.3388ZM15.7175 7.95912C16.2695 7.95912 16.7175 8.40722 16.7175 8.95934V22.4864C16.7175 23.0385 16.2695 23.4866 15.7175 23.4866C15.1655 23.4866 14.7175 23.0385 14.7175 22.4864V8.95934C14.7175 8.40722 15.1655 7.95912 15.7175 7.95912ZM21.8379 17.1732C22.3899 17.1732 22.8379 17.6213 22.8379 18.1734V22.4864C22.8379 23.0385 22.3899 23.4866 21.8379 23.4866C21.2859 23.4866 20.8379 23.0385 20.8379 22.4864V18.1734C20.8379 17.6213 21.2859 17.1732 21.8379 17.1732Z" fill="#FE390C"/>
</svg>
