<svg width="32" height="33" viewBox="0 0 32 33" fill="none" xmlns="http://www.w3.org/2000/svg">
<path fill-rule="evenodd" clip-rule="evenodd" d="M15.3228 2.78196C15.8748 2.78196 16.3228 3.23006 16.3228 3.78219C16.3228 4.33431 15.8748 4.78242 15.3228 4.78242H10.3375C6.89214 4.78242 4.66681 7.14295 4.66681 10.7958V21.8836C4.66681 25.5364 6.89214 27.897 10.3375 27.897H22.1028C25.5481 27.897 27.7748 25.5364 27.7748 21.8836V16.5117C27.7748 15.9596 28.2228 15.5115 28.7748 15.5115C29.3268 15.5115 29.7748 15.9596 29.7748 16.5117V21.8836C29.7748 26.6767 26.6908 29.8974 22.1028 29.8974H10.3375C5.74948 29.8974 2.66681 26.6767 2.66681 21.8836V10.7958C2.66681 6.00269 5.74948 2.78196 10.3375 2.78196H15.3228ZM26.9356 3.95369L28.5583 5.57673C29.3489 6.36624 29.7836 7.41581 29.7823 8.5334C29.7823 9.65098 29.3476 10.6992 28.5583 11.4874L18.5463 21.5017C17.8116 22.2365 16.8329 22.6419 15.7929 22.6419H10.7983C10.5289 22.6419 10.2703 22.5326 10.0823 22.3392C9.89428 22.1471 9.79161 21.8871 9.79827 21.6164L9.92361 16.5765C9.94894 15.5737 10.3529 14.6308 11.0623 13.9199H11.0636L21.0276 3.95369C22.6569 2.32666 25.3063 2.32666 26.9356 3.95369ZM20.2068 7.60252L12.4769 15.3349C12.1316 15.6803 11.9356 16.1391 11.9236 16.6259L11.8236 20.6415H15.7929C16.2996 20.6415 16.7743 20.4454 17.1329 20.0867L24.9095 12.3063L20.2068 7.60252ZM22.4409 5.36868L21.6201 6.18753L26.3228 10.8926L27.1449 10.0724C27.5556 9.66165 27.7823 9.11486 27.7823 8.5334C27.7823 7.9506 27.5556 7.40247 27.1449 6.99171L25.5223 5.36868C24.6729 4.52182 23.2916 4.52182 22.4409 5.36868Z" fill="#FE390C"/>
</svg>
