<svg width="42" height="42" viewBox="0 0 42 42" fill="none" xmlns="http://www.w3.org/2000/svg">
<circle cx="21" cy="21" r="21" fill="white" fill-opacity="0.1"/>
<path d="M21.199 16.8854C20.0544 16.8854 18.9567 17.3401 18.1474 18.1494C17.338 18.9588 16.8833 20.0565 16.8833 21.2011C16.8833 22.3457 17.338 23.4434 18.1474 24.2528C18.9567 25.0622 20.0544 25.5168 21.199 25.5168C22.3436 25.5168 23.4414 25.0622 24.2507 24.2528C25.0601 23.4434 25.5148 22.3457 25.5148 21.2011C25.5148 20.0565 25.0601 18.9588 24.2507 18.1494C23.4414 17.3401 22.3436 16.8854 21.199 16.8854ZM21.199 24.0039C20.4554 24.0039 19.7423 23.7085 19.2165 23.1827C18.6907 22.6569 18.3953 21.9438 18.3953 21.2002C18.3953 20.4566 18.6907 19.7434 19.2165 19.2176C19.7423 18.6918 20.4554 18.3964 21.199 18.3964C21.9426 18.3964 22.6558 18.6918 23.1816 19.2176C23.7074 19.7434 24.0028 20.4566 24.0028 21.2002C24.0028 21.9438 23.7074 22.6569 23.1816 23.1827C22.6558 23.7085 21.9426 24.0039 21.199 24.0039Z" fill="white"/>
<path d="M25.6856 17.7327C26.2413 17.7327 26.6918 17.2823 26.6918 16.7266C26.6918 16.1709 26.2413 15.7205 25.6856 15.7205C25.13 15.7205 24.6795 16.1709 24.6795 16.7266C24.6795 17.2823 25.13 17.7327 25.6856 17.7327Z" fill="white"/>
<path d="M29.1641 15.7037C28.948 15.1458 28.6178 14.6391 28.1947 14.2161C27.7715 13.7931 27.2647 13.4631 26.7066 13.2472C26.0536 13.0021 25.3637 12.8695 24.6664 12.8552C23.7676 12.816 23.4829 12.8048 21.2037 12.8048C18.9245 12.8048 18.6324 12.8048 17.741 12.8552C17.0442 12.8688 16.3548 13.0014 15.7026 13.2472C15.1444 13.4628 14.6375 13.7927 14.2143 14.2158C13.7911 14.6388 13.461 15.1456 13.2452 15.7037C13 16.3567 12.8677 17.0467 12.8541 17.744C12.814 18.6419 12.8018 18.9265 12.8018 21.2067C12.8018 23.4859 12.8018 23.7761 12.8541 24.6693C12.8681 25.3675 12.9997 26.0563 13.2452 26.7105C13.4616 27.2685 13.792 27.7751 14.2153 28.1981C14.6386 28.621 15.1455 28.9511 15.7036 29.1671C16.3545 29.4221 17.0442 29.5641 17.7429 29.5871C18.6417 29.6263 18.9264 29.6384 21.2056 29.6384C23.4848 29.6384 23.7769 29.6384 24.6682 29.5871C25.3655 29.5729 26.0554 29.4407 26.7085 29.196C27.2664 28.9797 27.7731 28.6494 28.1962 28.2263C28.6193 27.8031 28.9496 27.2964 29.166 26.7385C29.4114 26.0852 29.543 25.3964 29.557 24.6983C29.5972 23.8004 29.6093 23.5157 29.6093 21.2356C29.6093 18.9555 29.6093 18.6661 29.557 17.7729C29.5462 17.0657 29.4132 16.3657 29.1641 15.7037ZM28.0273 24.6003C28.0213 25.1382 27.9231 25.671 27.737 26.1757C27.5969 26.5387 27.3823 26.8683 27.1071 27.1433C26.8319 27.4183 26.5022 27.6327 26.1392 27.7727C25.64 27.9579 25.1128 28.0561 24.5805 28.0629C23.6938 28.104 23.4437 28.1143 21.1701 28.1143C18.8946 28.1143 18.6622 28.1143 17.7588 28.0629C17.2267 28.0564 16.6997 27.9582 16.201 27.7727C15.8367 27.6336 15.5057 27.4196 15.2293 27.1445C14.9529 26.8694 14.7374 26.5394 14.5966 26.1757C14.4132 25.6765 14.315 25.1499 14.3064 24.618C14.2662 23.7313 14.2569 23.4812 14.2569 21.2076C14.2569 18.9331 14.2569 18.7007 14.3064 17.7963C14.3124 17.2587 14.4106 16.7261 14.5966 16.2217C14.8813 15.4853 15.4646 14.9057 16.201 14.6239C16.7 14.4392 17.2268 14.341 17.7588 14.3336C18.6464 14.2935 18.8956 14.2823 21.1701 14.2823C23.4446 14.2823 23.678 14.2823 24.5805 14.3336C25.1129 14.34 25.6402 14.4382 26.1392 14.6239C26.5022 14.7641 26.8318 14.9787 27.107 15.2539C27.3822 15.5291 27.5968 15.8587 27.737 16.2217C27.9205 16.721 28.0186 17.2476 28.0273 17.7795C28.0674 18.6671 28.0777 18.9163 28.0777 21.1908C28.0777 23.4644 28.0777 23.7089 28.0376 24.6012H28.0273V24.6003Z" fill="white"/>
</svg>
