<svg width="42" height="42" viewBox="0 0 42 42" fill="none" xmlns="http://www.w3.org/2000/svg">
<circle cx="21" cy="21" r="21" fill="white" fill-opacity="0.1"/>
<path d="M14.6508 16.7173C15.7786 16.7173 16.6929 15.803 16.6929 14.6752C16.6929 13.5474 15.7786 12.6331 14.6508 12.6331C13.5229 12.6331 12.6086 13.5474 12.6086 14.6752C12.6086 15.803 13.5229 16.7173 14.6508 16.7173Z" fill="white"/>
<path d="M18.6212 18.2647V29.5945H22.1389V23.9917C22.1389 22.5133 22.4171 21.0815 24.2501 21.0815C26.058 21.0815 26.0804 22.7718 26.0804 24.085V29.5954H29.6V23.3822C29.6 20.3302 28.9429 17.9847 25.3757 17.9847C23.6631 17.9847 22.5151 18.9246 22.0456 19.8141H21.998V18.2647H18.6212ZM12.8887 18.2647H16.412V29.5945H12.8887V18.2647Z" fill="white"/>
</svg>
