<svg width="42" height="42" viewBox="0 0 42 42" fill="none" xmlns="http://www.w3.org/2000/svg">
<circle cx="21" cy="21" r="21" fill="white" fill-opacity="0.1"/>
<path d="M29.2827 16.5148C28.4682 15.1034 27.2961 13.9316 25.8844 13.1175C24.4536 12.284 22.8922 11.8668 21.2 11.8668C19.5079 11.8668 17.9464 12.284 16.5147 13.1175C15.0839 13.951 13.9508 15.084 13.1174 16.5148C12.2839 17.9456 11.8667 19.508 11.8667 21.2002C11.8667 22.8923 12.283 24.4547 13.1174 25.8855C13.9315 27.2972 15.1037 28.469 16.5156 29.2828C17.9464 30.1163 19.5079 30.5335 21.2 30.5335C22.8922 30.5335 24.4536 30.1163 25.8854 29.2828C27.297 28.4688 28.4692 27.2969 29.2836 25.8855C30.1171 24.4547 30.5334 22.8923 30.5334 21.2002C30.5334 19.508 30.1171 17.9456 29.2827 16.5148ZM21.2 13.4162C23.0667 13.4162 24.7206 14.0135 26.1654 15.2072C25.3067 16.303 24.0318 17.2046 22.3387 17.9139C21.4035 16.2218 20.3899 14.8087 19.2951 13.6766C19.9156 13.505 20.5563 13.4174 21.2 13.4162ZM15.1427 16.3468C15.8252 15.4802 16.6887 14.773 17.673 14.2748C18.8042 15.3958 19.843 16.7948 20.7903 18.4748C18.9236 19.0348 16.9506 19.3148 14.872 19.3148C14.3372 19.3148 13.9331 19.3027 13.6587 19.2775C13.9447 18.2082 14.4501 17.2102 15.1427 16.3468ZM13.416 21.2002C13.416 21.1498 13.4188 21.0882 13.4254 21.0135C13.4319 20.9388 13.4347 20.8772 13.4347 20.8268C13.6718 20.8399 14.033 20.8455 14.5183 20.8455C17.0066 20.8455 19.3212 20.503 21.4614 19.8188C21.6359 20.167 21.817 20.559 22.0027 20.9948C20.7707 21.2683 19.507 21.9338 18.2124 22.9922C16.9179 24.0506 15.9734 25.164 15.376 26.3335C14.0694 24.8523 13.416 23.1415 13.416 21.2002ZM21.2 28.9842C19.4323 28.9842 17.8456 28.4363 16.4391 27.3424C17 26.2346 17.8615 25.1752 19.0254 24.1682C20.1883 23.1602 21.3428 22.532 22.488 22.2828C23.2104 24.2792 23.699 26.3526 23.944 28.4615C23.0694 28.8033 22.1391 28.9805 21.2 28.9842ZM27.808 25.2882C27.1971 26.2724 26.3745 27.1081 25.4 27.7344C25.176 25.7931 24.7467 23.9012 24.113 22.0588C24.9828 21.9972 25.7603 21.9655 26.4463 21.9655C27.192 21.9655 28.0199 21.9972 28.928 22.0588C28.8062 23.2067 28.4231 24.3114 27.808 25.2882ZM26.6507 20.6215C25.568 20.6215 24.5666 20.6654 23.6454 20.7522C23.4502 20.2414 23.2386 19.7372 23.0107 19.2402C24.939 18.3946 26.3072 17.3679 27.1164 16.1602C28.2364 17.4799 28.8468 18.9854 28.9458 20.6775C28.1879 20.6402 27.4226 20.6215 26.6507 20.6215Z" fill="white"/>
</svg>
